<?xml version="1.0" standalone="no"?>
<!DOCTYPE svg PUBLIC "-//W3C//DTD SVG 20010904//EN"
 "http://www.w3.org/TR/2001/REC-SVG-20010904/DTD/svg10.dtd">
<svg version="1.0" xmlns="http://www.w3.org/2000/svg"
 width="512.000000pt" height="512.000000pt" viewBox="0 0 512.000000 512.000000"
 preserveAspectRatio="xMidYMid meet">

<g transform="translate(0.000000,512.000000) scale(0.100000,-0.100000)"
fill="#000000" stroke="none">
<path d="M1 3903 c0 -873 3 -1211 11 -1193 52 123 172 348 238 450 147 224
340 444 531 605 l87 72 -314 314 c-173 173 -314 318 -314 324 0 6 64 74 143
153 l142 142 2063 -2063 2062 -2062 -148 -148 -147 -147 -389 389 -388 388
-89 -34 c-50 -18 -149 -49 -222 -68 -472 -124 -943 -124 -1416 1 -529 139
-1015 444 -1375 865 -195 228 -294 388 -458 739 -16 33 -17 -57 -17 -1297 l-1
-1333 2560 0 2560 0 0 1332 c0 732 -2 1329 -4 1327 -2 -2 -23 -47 -46 -99
-135 -306 -328 -582 -593 -843 l-150 -149 -342 342 -342 342 24 75 c59 187 69
440 24 619 -165 664 -854 1048 -1492 833 l-62 -20 -249 248 c-136 136 -244
251 -240 255 14 13 246 79 369 104 358 72 754 70 1116 -5 304 -64 627 -195
895 -365 322 -204 629 -509 839 -832 71 -109 174 -300 226 -419 l26 -60 0
1218 1 1217 -2560 0 -2560 0 1 -1217z m2733 -553 c240 -61 439 -258 500 -495
19 -76 32 -205 20 -205 -5 0 -171 162 -369 360 l-360 360 66 0 c36 0 100 -9
143 -20z"/>
<path d="M1481 3102 c-58 -153 -73 -225 -78 -392 -4 -132 -2 -170 17 -260 67
-328 268 -609 555 -778 310 -183 669 -207 1018 -70 l78 31 -177 178 -178 178
-115 -6 c-98 -5 -129 -2 -201 16 -209 52 -376 187 -469 376 -56 117 -82 275
-63 390 l10 60 -176 178 c-97 97 -180 177 -184 177 -3 0 -20 -35 -37 -78z"/>
</g>
</svg>
