<?xml version="1.0" standalone="no"?>
<!DOCTYPE svg PUBLIC "-//W3C//DTD SVG 20010904//EN"
 "http://www.w3.org/TR/2001/REC-SVG-20010904/DTD/svg10.dtd">
<svg version="1.0" xmlns="http://www.w3.org/2000/svg"
 width="512.000000pt" height="512.000000pt" viewBox="0 0 512.000000 512.000000"
 preserveAspectRatio="xMidYMid meet">

<g transform="translate(0.000000,512.000000) scale(0.100000,-0.100000)"
fill="#000000" stroke="none">
<path d="M0 2560 l0 -2560 2560 0 2560 0 0 2560 0 2560 -2560 0 -2560 0 0
-2560z m2709 1429 c556 -35 1060 -230 1491 -576 236 -190 495 -497 630 -748
47 -89 41 -142 -29 -261 -504 -843 -1427 -1334 -2397 -1273 -361 23 -663 103
-989 264 -425 208 -762 503 -1020 890 -117 176 -137 220 -133 285 3 45 14 72
60 150 433 734 1217 1215 2071 1269 67 5 129 9 137 9 8 1 89 -3 179 -9z"/>
<path d="M2441 3579 c-157 -18 -346 -91 -475 -183 -297 -212 -467 -586 -426
-937 57 -496 432 -868 922 -919 422 -43 834 189 1019 575 85 178 118 357 99
543 -51 489 -425 867 -913 921 -107 12 -120 12 -226 0z m257 -345 c44 -8 117
-35 170 -60 77 -37 108 -60 176 -127 67 -68 90 -100 128 -177 75 -152 94 -292
62 -448 -43 -209 -187 -393 -379 -483 -200 -93 -402 -91 -605 9 -77 37 -110
61 -176 127 -214 213 -262 518 -127 795 38 78 61 109 128 176 67 68 98 90 176
127 152 74 291 93 447 61z"/>
</g>
</svg>
